Coordinates
version=1
nRows=65
nColumns=19
inDegrees=yes

Units are S.I. units (second, meters, Newtons, ...)
Angles are in degrees.

endheader
time	1_Force_X	1_Force_Y	1_Force_Z	1_Moment_X	1_Moment_Y	1_Moment_Z	1_COP_X	1_COP_Y	1_COP_Z	2_Force_X	2_Force_Y	2_Force_Z	2_Moment_X	2_Moment_Y	2_Moment_Z	2_COP_X	2_COP_Y	2_COP_Z
0.0075	-1.296	-1.563	0.974	-0.238	0.000	0.377	-15.341	-1.124	-3.728	-0.215	0.000	0.271	0.00000	-0.89154	0.00000	0.00000	-97.17410	0.00000
0.0100	-1.512	-1.384	1.064	-0.251	0.000	0.391	-15.383	-0.094	-3.943	-0.215	0.000	0.270	0.00000	-1.05385	0.00000	0.00000	-1231.73636	0.00000
0.0125	-1.558	-1.381	1.110	-0.237	0.000	0.408	-15.425	0.248	-4.294	-0.215	0.000	0.267	0.00000	-0.81540	0.00000	0.00000	462.76780	0.00000
0.0150	-1.470	-1.036	1.241	-0.228	0.000	0.403	-15.514	-1.297	-4.123	-0.211	0.000	0.272	0.00000	-0.76441	0.00000	0.00000	-82.69777	0.00000
0.0175	-1.028	-1.561	1.327	-0.241	0.000	0.393	-15.382	-1.291	-3.815	-0.214	0.000	0.272	0.00000	-0.45146	0.00000	0.00000	-84.02662	0.00000
0.0200	-1.339	-1.733	1.241	-0.238	0.000	0.382	-15.296	-1.981	-3.859	-0.213	0.000	0.275	0.00000	-0.68640	0.00000	0.00000	-52.75788	0.00000
0.0225	-1.298	-1.912	0.887	-0.224	0.000	0.393	-15.511	-1.123	-4.165	-0.215	0.000	0.271	0.00000	-0.72161	0.00000	0.00000	-96.85603	0.00000
0.0250	-1.296	-1.733	0.976	-0.236	0.000	0.396	-15.292	-1.808	-4.165	-0.213	0.000	0.274	0.00000	-0.69245	0.00000	0.00000	-56.85453	0.00000
0.0275	-1.607	-0.343	0.887	-0.215	0.000	0.385	-15.813	-1.125	-4.690	-0.214	0.000	0.273	0.00000	-2.80789	0.00000	0.00000	-97.34107	0.00000
0.0300	-1.561	-0.346	0.841	-0.228	0.000	0.372	-15.769	-0.608	-4.645	-0.215	0.000	0.272	0.00000	-3.42115	0.00000	0.00000	-185.61840	0.00000
0.0325	-1.562	-0.344	0.841	-0.228	0.000	0.372	-15.680	-0.954	-4.862	-0.215	0.000	0.274	0.00000	-3.39805	0.00000	0.00000	-115.74724	0.00000
0.0350	-1.165	-1.563	0.974	-0.237	0.000	0.377	-15.377	-1.119	-4.162	-0.218	0.000	0.273	0.00000	-0.74978	0.00000	0.00000	-97.69526	0.00000
0.0375	-1.736	-0.167	1.019	-0.229	0.000	0.379	-15.768	-1.124	-4.776	-0.214	0.000	0.275	0.00000	-6.33350	0.00000	0.00000	-98.01827	0.00000
0.0400	-1.515	-0.168	1.239	-0.227	0.000	0.374	-15.724	-0.953	-4.863	-0.214	0.000	0.274	0.00000	-4.34128	0.00000	0.00000	-115.24107	0.00000
0.0425	-1.560	-0.341	0.975	-0.238	0.000	0.373	-15.766	-0.265	-4.951	-0.216	0.000	0.269	0.00000	-3.27994	0.00000	0.00000	-421.79396	0.00000
0.0450	-1.386	-0.520	0.797	-0.222	0.000	0.385	-15.942	-0.435	-4.731	-0.216	0.000	0.273	0.00000	-1.83172	0.00000	0.00000	-267.78974	0.00000
0.0475	-1.559	-1.037	0.975	-0.242	0.000	0.384	-15.942	-0.781	-4.731	-0.217	0.000	0.275	0.00000	-1.33503	0.00000	0.00000	-148.92539	0.00000
0.0500	-1.385	-1.912	1.062	-0.232	0.000	0.368	-15.683	-2.322	-4.254	-0.214	0.000	0.277	0.00000	-0.85545	0.00000	0.00000	-44.86506	0.00000
0.0525	-1.431	-1.388	0.975	-0.224	0.000	0.379	-15.508	-1.289	-4.206	-0.215	0.000	0.274	0.00000	-0.93000	0.00000	0.00000	-85.01766	0.00000
0.0550	-1.297	-0.697	1.016	-0.222	0.000	0.365	-15.639	-1.807	-4.250	-0.216	0.000	0.278	0.00000	-1.37874	0.00000	0.00000	-60.92199	0.00000
0.0575	-1.430	-1.216	0.974	-0.221	0.000	0.376	-15.685	-1.635	-4.033	-0.215	0.000	0.276	0.00000	-1.04196	0.00000	0.00000	-68.04063	0.00000
0.0600	-1.737	0.007	0.842	-0.234	0.000	0.367	-16.074	-0.951	-4.515	-0.216	0.000	0.273	0.00000	184.53208	0.00000	0.00000	-121.06195	0.00000
0.0625	-1.472	-0.518	1.062	-0.225	0.000	0.377	-15.858	-0.777	-4.295	-0.216	0.000	0.274	0.00000	-1.79561	0.00000	0.00000	-149.37919	0.00000
0.0650	-1.648	-0.337	0.932	-0.246	0.000	0.379	-16.077	-2.153	-4.300	-0.214	0.000	0.277	0.00000	-3.58703	0.00000	0.00000	-50.67874	0.00000
0.0675	-1.425	-0.859	1.197	-0.244	0.000	0.394	-16.077	-1.809	-4.254	-0.215	0.000	0.277	0.00000	-1.03313	0.00000	0.00000	-62.48661	0.00000
0.0700	-1.471	-0.343	1.150	-0.232	0.000	0.371	-16.209	-1.808	-4.080	-0.214	0.000	0.277	0.00000	-2.62402	0.00000	0.00000	-63.65564	0.00000
0.0725	-1.208	-1.913	0.974	-0.231	0.000	0.391	-16.036	-2.834	-3.644	-0.216	0.000	0.278	0.00000	-0.68139	0.00000	0.00000	-38.11058	0.00000
0.0750	-1.298	-2.263	0.709	-0.232	0.000	0.388	-16.121	-1.975	-3.860	-0.217	0.000	0.278	0.00000	-0.83624	0.00000	0.00000	-58.22535	0.00000
0.0775	-0.988	-2.438	0.841	-0.236	0.000	0.391	-15.905	-2.323	-3.904	-0.215	0.000	0.278	0.00000	-0.60028	0.00000	0.00000	-47.41017	0.00000
0.0800	-1.472	-1.211	1.064	-0.235	0.000	0.382	-15.989	-1.977	-4.033	-0.217	0.000	0.279	0.00000	-1.01767	0.00000	0.00000	-57.63834	0.00000
0.0825	-1.166	-0.873	1.016	-0.217	0.000	0.360	-16.034	-1.634	-3.990	-0.216	0.000	0.277	0.00000	-1.01882	0.00000	0.00000	-70.95271	0.00000
0.0850	-1.561	-1.037	0.932	-0.233	0.000	0.384	-16.163	-1.465	-4.294	-0.215	0.000	0.280	0.00000	-1.27803	0.00000	0.00000	-81.17799	0.00000
0.0875	-1.736	-1.385	0.667	-0.250	0.000	0.378	-16.470	-0.431	-3.946	-0.218	0.000	0.274	0.00000	-1.52885	0.00000	0.00000	-296.18804	0.00000
0.0900	-1.648	-1.210	0.800	-0.238	0.000	0.398	-16.078	-1.807	-3.990	-0.215	0.000	0.279	0.00000	-1.25040	0.00000	0.00000	-64.30985	0.00000
0.0925	-1.342	-1.735	0.888	-0.228	0.000	0.390	-15.774	-1.289	-3.727	-0.217	0.000	0.274	0.00000	-0.76387	0.00000	0.00000	-89.48459	0.00000
0.0950	-1.340	-1.909	0.843	-0.238	0.000	0.396	-15.949	-2.321	-3.641	-0.217	0.000	0.279	0.00000	-0.78890	0.00000	0.00000	-48.66423	0.00000
0.0975	-1.386	-1.215	1.152	-0.216	0.000	0.380	-16.341	-2.147	-3.642	-0.218	0.000	0.279	0.00000	-0.78765	0.00000	0.00000	-54.96638	0.00000
0.1000	-1.386	-1.041	1.019	-0.225	0.000	0.376	-16.165	-2.148	-3.859	-0.217	0.000	0.279	0.00000	-1.06699	0.00000	0.00000	-53.78255	0.00000
0.1025	-1.204	-2.602	1.197	-0.249	0.000	0.403	-16.038	-2.320	-3.511	-0.216	0.000	0.279	0.00000	-0.52978	0.00000	0.00000	-49.26374	0.00000
0.1050	-1.518	-1.560	1.064	-0.231	0.000	0.378	-16.429	-2.489	-3.644	-0.215	0.000	0.280	0.00000	-0.93669	0.00000	0.00000	-46.61934	0.00000
0.1075	-1.431	-1.041	0.666	-0.228	0.000	0.382	-16.514	-1.119	-4.034	-0.217	0.000	0.277	0.00000	-1.34142	0.00000	0.00000	-110.99198	0.00000
0.1100	-1.559	-1.036	1.152	-0.242	0.000	0.374	-16.778	-1.292	-3.951	-0.216	0.000	0.275	0.00000	-1.31327	0.00000	0.00000	-96.16864	0.00000
0.1125	-1.296	-0.167	1.151	-0.228	0.000	0.377	-16.472	-1.119	-3.905	-0.216	0.000	0.275	0.00000	-3.25444	0.00000	0.00000	-109.50070	0.00000
0.1150	-1.559	-0.514	1.285	-0.225	0.000	0.388	-16.296	-1.119	-3.992	-0.218	0.000	0.273	0.00000	-1.42496	0.00000	0.00000	-106.72247	0.00000
0.1175	-1.428	-0.866	1.107	-0.228	0.000	0.376	-16.514	-1.464	-4.169	-0.215	0.000	0.275	0.00000	-1.19833	0.00000	0.00000	-81.04523	0.00000
0.1200	-1.035	-1.045	0.884	-0.221	0.000	0.375	-16.076	-1.632	-3.944	-0.217	0.000	0.279	0.00000	-0.75731	0.00000	0.00000	-72.34819	0.00000
0.1225	-1.471	-1.734	1.108	-0.235	0.000	0.386	-16.121	-2.663	-3.992	-0.215	0.000	0.280	0.00000	-0.83190	0.00000	0.00000	-41.27791	0.00000
0.1250	-1.649	-1.208	0.889	-0.240	0.000	0.393	-16.116	-1.464	-4.559	-0.217	0.000	0.275	0.00000	-1.21001	0.00000	0.00000	-77.09249	0.00000
0.1275	-1.558	-1.037	1.152	-0.233	0.000	0.391	-16.512	-1.463	-4.254	-0.216	0.000	0.278	0.00000	-1.08262	0.00000	0.00000	-82.35839	0.00000
0.1300	-1.562	-0.169	0.798	-0.225	0.000	0.374	-16.424	-1.463	-4.299	-0.217	0.000	0.275	0.00000	-6.29186	0.00000	0.00000	-80.23282	0.00000
0.1325	-1.299	-1.918	0.707	-0.230	0.000	0.369	-16.117	-2.320	-4.340	-0.216	0.000	0.280	0.00000	-0.99427	0.00000	0.00000	-47.75487	0.00000
0.1350	-1.692	-0.688	1.153	-0.227	0.000	0.387	-16.552	-0.777	-4.646	-0.217	0.000	0.275	0.00000	-1.54643	0.00000	0.00000	-157.56137	0.00000
0.1375	-1.472	-1.037	0.887	-0.242	0.000	0.387	-16.380	-0.949	-4.339	-0.218	0.000	0.276	0.00000	-1.26393	0.00000	0.00000	-129.03115	0.00000
0.1400	-1.079	-1.047	0.971	-0.219	0.000	0.358	-15.946	-1.803	-3.858	-0.218	0.000	0.278	0.00000	-0.86269	0.00000	0.00000	-63.74213	0.00000
0.1425	-1.604	-1.035	0.888	-0.240	0.000	0.395	-16.292	-1.120	-4.426	-0.217	0.000	0.277	0.00000	-1.28563	0.00000	0.00000	-107.31045	0.00000
0.1450	-1.386	-1.386	0.888	-0.230	0.000	0.396	-16.121	-0.948	-4.075	-0.217	0.000	0.276	0.00000	-0.85047	0.00000	0.00000	-128.11733	0.00000
0.1475	-1.210	-1.218	1.017	-0.222	0.000	0.376	-15.947	-3.178	-3.860	-0.215	0.000	0.282	0.00000	-0.80598	0.00000	0.00000	-33.62527	0.00000
0.1500	-1.252	-2.084	0.798	-0.246	0.000	0.383	-16.297	-1.977	-3.772	-0.218	0.000	0.279	0.00000	-0.80531	0.00000	0.00000	-60.09595	0.00000
0.1525	-1.208	-1.738	1.062	-0.233	0.000	0.383	-16.036	-3.180	-3.730	-0.216	0.000	0.282	0.00000	-0.68767	0.00000	0.00000	-34.21489	0.00000
0.1550	-1.167	-1.219	0.928	-0.224	0.000	0.367	-16.035	-2.492	-3.772	-0.217	0.000	0.281	0.00000	-0.89636	0.00000	0.00000	-45.46713	0.00000
0.1575	-1.431	-1.737	0.886	-0.235	0.000	0.369	-15.947	-3.008	-3.905	-0.216	0.000	0.280	0.00000	-0.98557	0.00000	0.00000	-35.33817	0.00000
0.1600	-1.384	-2.431	0.888	-0.238	0.000	0.401	-16.166	-1.975	-3.728	-0.217	0.000	0.278	0.00000	-0.71618	0.00000	0.00000	-59.15058	0.00000
0.1625	-1.602	-1.207	1.154	-0.238	0.000	0.406	-16.208	-1.463	-4.033	-0.216	0.000	0.278	0.00000	-0.90176	0.00000	0.00000	-81.93718	0.00000
0.1650	-1.738	-0.338	1.021	-0.221	0.000	0.383	-16.164	-1.291	-4.165	-0.217	0.000	0.276	0.00000	-3.04608	0.00000	0.00000	-91.19598	0.00000
0.1675	-1.340	-1.735	0.974	-0.247	0.000	0.372	-15.947	-2.664	-3.859	-0.217	0.000	0.281	0.00000	-0.91378	0.00000	0.00000	-41.64516	0.00000
